<?xml version="1.0" encoding="UTF-8" standalone="no"?>
<!-- Created with Inkscape (http://www.inkscape.org/) -->

<svg
   width="210mm"
   height="297mm"
   viewBox="0 0 210 297"
   version="1.1"
   id="svg1"
   inkscape:version="1.3.2 (091e20e, 2023-11-25, custom)"
   sodipodi:docname="rating.svg"
   xmlns:inkscape="http://www.inkscape.org/namespaces/inkscape"
   xmlns:sodipodi="http://sodipodi.sourceforge.net/DTD/sodipodi-0.dtd"
   xmlns="http://www.w3.org/2000/svg"
   xmlns:svg="http://www.w3.org/2000/svg">
  <sodipodi:namedview
     id="namedview1"
     pagecolor="#ffffff"
     bordercolor="#999999"
     borderopacity="1"
     inkscape:showpageshadow="2"
     inkscape:pageopacity="0"
     inkscape:pagecheckerboard="0"
     inkscape:deskcolor="#d1d1d1"
     inkscape:document-units="mm"
     inkscape:zoom="0.42493687"
     inkscape:cx="44.712524"
     inkscape:cy="601.26579"
     inkscape:window-width="1366"
     inkscape:window-height="715"
     inkscape:window-x="-8"
     inkscape:window-y="22"
     inkscape:window-maximized="1"
     inkscape:current-layer="layer1" />
  <defs
     id="defs1" />
  <g
     inkscape:label="Layer 1"
     inkscape:groupmode="layer"
     id="layer1">
    <g
       id="g5"
       inkscape:label="bintang5"
       inkscape:export-filename="bintang-5.png"
       inkscape:export-xdpi="96"
       inkscape:export-ydpi="96">
      <rect
         style="fill:#ffffff;stroke-width:0.2;paint-order:stroke fill markers;stroke:none;opacity:0"
         id="rect1"
         width="153.04111"
         height="29.416342"
         x="26.453632"
         y="68.810135"
         rx="6.3767118"
         ry="7.3540854" />
      <path
         sodipodi:type="star"
         style="fill:#ffd700;stroke-width:0.527631;paint-order:stroke fill markers"
         id="path1"
         inkscape:flatsided="false"
         sodipodi:sides="5"
         sodipodi:cx="58.336308"
         sodipodi:cy="66.261238"
         sodipodi:r1="12.779328"
         sodipodi:r2="26.570242"
         sodipodi:arg1="0.30451088"
         sodipodi:arg2="0.93282941"
         inkscape:rounded="0"
         inkscape:randomized="0"
         d="m 70.527706,70.092821 3.632867,17.512512 -15.700968,-8.565361 -15.532771,8.866725 3.294277,-17.57935 -13.232647,-12.032574 17.736942,-2.299275 7.354546,-16.303265 7.667756,16.15832 17.778007,1.956602 z"
         inkscape:transform-center-x="0.0083063963"
         inkscape:transform-center-y="0.0085950323"
         transform="matrix(0.37905285,0,0,0.37905285,28.188888,58.988153)" />
      <path
         sodipodi:type="star"
         style="fill:#ffd700;stroke-width:0.527631;paint-order:stroke fill markers"
         id="path2"
         inkscape:flatsided="false"
         sodipodi:sides="5"
         sodipodi:cx="58.336308"
         sodipodi:cy="66.261238"
         sodipodi:r1="12.779328"
         sodipodi:r2="26.570242"
         sodipodi:arg1="0.30451088"
         sodipodi:arg2="0.93282941"
         inkscape:rounded="0"
         inkscape:randomized="0"
         d="m 70.527706,70.092821 3.632867,17.512512 -15.700968,-8.565361 -15.532771,8.866725 3.294277,-17.57935 -13.232647,-12.032574 17.736942,-2.299275 7.354546,-16.303265 7.667756,16.15832 17.778007,1.956602 z"
         inkscape:transform-center-x="0.0083063963"
         inkscape:transform-center-y="0.0085950323"
         transform="matrix(0.37905285,0,0,0.37905285,54.647223,58.988153)" />
      <path
         sodipodi:type="star"
         style="fill:#ffd700;stroke-width:0.527631;paint-order:stroke fill markers"
         id="path3"
         inkscape:flatsided="false"
         sodipodi:sides="5"
         sodipodi:cx="58.336308"
         sodipodi:cy="66.261238"
         sodipodi:r1="12.779328"
         sodipodi:r2="26.570242"
         sodipodi:arg1="0.30451088"
         sodipodi:arg2="0.93282941"
         inkscape:rounded="0"
         inkscape:randomized="0"
         d="m 70.527706,70.092821 3.632867,17.512512 -15.700968,-8.565361 -15.532771,8.866725 3.294277,-17.57935 -13.232647,-12.032574 17.736942,-2.299275 7.354546,-16.303265 7.667756,16.15832 17.778007,1.956602 z"
         inkscape:transform-center-x="0.0083063963"
         inkscape:transform-center-y="0.0085950323"
         transform="matrix(0.37905285,0,0,0.37905285,81.105558,58.988153)" />
      <path
         sodipodi:type="star"
         style="fill:#ffd700;stroke-width:0.527631;paint-order:stroke fill markers"
         id="path4"
         inkscape:flatsided="false"
         sodipodi:sides="5"
         sodipodi:cx="58.336308"
         sodipodi:cy="66.261238"
         sodipodi:r1="12.779328"
         sodipodi:r2="26.570242"
         sodipodi:arg1="0.30451088"
         sodipodi:arg2="0.93282941"
         inkscape:rounded="0"
         inkscape:randomized="0"
         d="m 70.527706,70.092821 3.632867,17.512512 -15.700968,-8.565361 -15.532771,8.866725 3.294277,-17.57935 -13.232647,-12.032574 17.736942,-2.299275 7.354546,-16.303265 7.667756,16.15832 17.778007,1.956602 z"
         inkscape:transform-center-x="0.0083063963"
         inkscape:transform-center-y="0.0085950323"
         transform="matrix(0.37905285,0,0,0.37905285,107.5639,58.988153)" />
      <path
         sodipodi:type="star"
         style="fill:#ffd700;stroke-width:0.527631;paint-order:stroke fill markers"
         id="path5"
         inkscape:flatsided="false"
         sodipodi:sides="5"
         sodipodi:cx="58.336308"
         sodipodi:cy="66.261238"
         sodipodi:r1="12.779328"
         sodipodi:r2="26.570242"
         sodipodi:arg1="0.30451088"
         sodipodi:arg2="0.93282941"
         inkscape:rounded="0"
         inkscape:randomized="0"
         d="m 70.527706,70.092821 3.632867,17.512512 -15.700968,-8.565361 -15.532771,8.866725 3.294277,-17.57935 -13.232647,-12.032574 17.736942,-2.299275 7.354546,-16.303265 7.667756,16.15832 17.778007,1.956602 z"
         inkscape:transform-center-x="0.0083063963"
         inkscape:transform-center-y="0.0085950323"
         transform="matrix(0.37905285,0,0,0.37905285,134.02225,58.988153)" />
    </g>
    <g
       id="g10"
       inkscape:label="bintang4"
       transform="translate(0,35.801887)"
       inkscape:export-filename="bintang-4.png"
       inkscape:export-xdpi="96"
       inkscape:export-ydpi="96">
      <rect
         style="fill:#ffffff;stroke-width:1;paint-order:stroke fill markers;stroke:none;stroke-dasharray:none;opacity:0"
         id="rect5"
         width="153.04111"
         height="29.416342"
         x="26.453632"
         y="68.810135"
         rx="6.3767118"
         ry="7.3540854" />
      <path
         sodipodi:type="star"
         style="fill:#ffd700;stroke-width:0.527631;paint-order:stroke fill markers"
         id="path6"
         inkscape:flatsided="false"
         sodipodi:sides="5"
         sodipodi:cx="58.336308"
         sodipodi:cy="66.261238"
         sodipodi:r1="12.779328"
         sodipodi:r2="26.570242"
         sodipodi:arg1="0.30451088"
         sodipodi:arg2="0.93282941"
         inkscape:rounded="0"
         inkscape:randomized="0"
         d="m 70.527706,70.092821 3.632867,17.512512 -15.700968,-8.565361 -15.532771,8.866725 3.294277,-17.57935 -13.232647,-12.032574 17.736942,-2.299275 7.354546,-16.303265 7.667756,16.15832 17.778007,1.956602 z"
         inkscape:transform-center-x="0.0083063963"
         inkscape:transform-center-y="0.0085950323"
         transform="matrix(0.37905285,0,0,0.37905285,28.188888,58.988153)" />
      <path
         sodipodi:type="star"
         style="fill:#ffd700;stroke-width:0.527631;paint-order:stroke fill markers"
         id="path7"
         inkscape:flatsided="false"
         sodipodi:sides="5"
         sodipodi:cx="58.336308"
         sodipodi:cy="66.261238"
         sodipodi:r1="12.779328"
         sodipodi:r2="26.570242"
         sodipodi:arg1="0.30451088"
         sodipodi:arg2="0.93282941"
         inkscape:rounded="0"
         inkscape:randomized="0"
         d="m 70.527706,70.092821 3.632867,17.512512 -15.700968,-8.565361 -15.532771,8.866725 3.294277,-17.57935 -13.232647,-12.032574 17.736942,-2.299275 7.354546,-16.303265 7.667756,16.15832 17.778007,1.956602 z"
         inkscape:transform-center-x="0.0083063963"
         inkscape:transform-center-y="0.0085950323"
         transform="matrix(0.37905285,0,0,0.37905285,54.647223,58.988153)" />
      <path
         sodipodi:type="star"
         style="fill:#ffd700;stroke-width:0.527631;paint-order:stroke fill markers"
         id="path8"
         inkscape:flatsided="false"
         sodipodi:sides="5"
         sodipodi:cx="58.336308"
         sodipodi:cy="66.261238"
         sodipodi:r1="12.779328"
         sodipodi:r2="26.570242"
         sodipodi:arg1="0.30451088"
         sodipodi:arg2="0.93282941"
         inkscape:rounded="0"
         inkscape:randomized="0"
         d="m 70.527706,70.092821 3.632867,17.512512 -15.700968,-8.565361 -15.532771,8.866725 3.294277,-17.57935 -13.232647,-12.032574 17.736942,-2.299275 7.354546,-16.303265 7.667756,16.15832 17.778007,1.956602 z"
         inkscape:transform-center-x="0.0083063963"
         inkscape:transform-center-y="0.0085950323"
         transform="matrix(0.37905285,0,0,0.37905285,81.105558,58.988153)" />
      <path
         sodipodi:type="star"
         style="fill:#ffd700;stroke-width:0.527631;paint-order:stroke fill markers"
         id="path9"
         inkscape:flatsided="false"
         sodipodi:sides="5"
         sodipodi:cx="58.336308"
         sodipodi:cy="66.261238"
         sodipodi:r1="12.779328"
         sodipodi:r2="26.570242"
         sodipodi:arg1="0.30451088"
         sodipodi:arg2="0.93282941"
         inkscape:rounded="0"
         inkscape:randomized="0"
         d="m 70.527706,70.092821 3.632867,17.512512 -15.700968,-8.565361 -15.532771,8.866725 3.294277,-17.57935 -13.232647,-12.032574 17.736942,-2.299275 7.354546,-16.303265 7.667756,16.15832 17.778007,1.956602 z"
         inkscape:transform-center-x="0.0083063963"
         inkscape:transform-center-y="0.0085950323"
         transform="matrix(0.37905285,0,0,0.37905285,107.5639,58.988153)" />
      <path
         sodipodi:type="star"
         style="fill:#fffacd;stroke-width:2.63815455;paint-order:stroke fill markers;stroke:#ffdead;stroke-dasharray:none"
         id="path10"
         inkscape:flatsided="false"
         sodipodi:sides="5"
         sodipodi:cx="58.336308"
         sodipodi:cy="66.261238"
         sodipodi:r1="12.779328"
         sodipodi:r2="26.570242"
         sodipodi:arg1="0.30451088"
         sodipodi:arg2="0.93282941"
         inkscape:rounded="0"
         inkscape:randomized="0"
         d="m 70.527706,70.092821 3.632867,17.512512 -15.700968,-8.565361 -15.532771,8.866725 3.294277,-17.57935 -13.232647,-12.032574 17.736942,-2.299275 7.354546,-16.303265 7.667756,16.15832 17.778007,1.956602 z"
         inkscape:transform-center-x="0.0083063963"
         inkscape:transform-center-y="0.0085950323"
         transform="matrix(0.37905285,0,0,0.37905285,134.02225,58.988153)" />
    </g>
    <g
       id="g15"
       inkscape:label="bintang3"
       transform="translate(0,72.849057)"
       inkscape:export-filename="bintang-3.png"
       inkscape:export-xdpi="96"
       inkscape:export-ydpi="96">
      <rect
         style="fill:#ffffff;stroke:none;stroke-width:1;stroke-dasharray:none;paint-order:stroke fill markers;opacity:0"
         id="rect10"
         width="153.04111"
         height="29.416342"
         x="26.453632"
         y="68.810135"
         rx="6.3767118"
         ry="7.3540854" />
      <path
         sodipodi:type="star"
         style="fill:#ffd700;stroke-width:0.527631;paint-order:stroke fill markers"
         id="path11"
         inkscape:flatsided="false"
         sodipodi:sides="5"
         sodipodi:cx="58.336308"
         sodipodi:cy="66.261238"
         sodipodi:r1="12.779328"
         sodipodi:r2="26.570242"
         sodipodi:arg1="0.30451088"
         sodipodi:arg2="0.93282941"
         inkscape:rounded="0"
         inkscape:randomized="0"
         d="m 70.527706,70.092821 3.632867,17.512512 -15.700968,-8.565361 -15.532771,8.866725 3.294277,-17.57935 -13.232647,-12.032574 17.736942,-2.299275 7.354546,-16.303265 7.667756,16.15832 17.778007,1.956602 z"
         inkscape:transform-center-x="0.0083063963"
         inkscape:transform-center-y="0.0085950323"
         transform="matrix(0.37905285,0,0,0.37905285,28.188888,58.988153)" />
      <path
         sodipodi:type="star"
         style="fill:#ffd700;stroke-width:0.527631;paint-order:stroke fill markers"
         id="path12"
         inkscape:flatsided="false"
         sodipodi:sides="5"
         sodipodi:cx="58.336308"
         sodipodi:cy="66.261238"
         sodipodi:r1="12.779328"
         sodipodi:r2="26.570242"
         sodipodi:arg1="0.30451088"
         sodipodi:arg2="0.93282941"
         inkscape:rounded="0"
         inkscape:randomized="0"
         d="m 70.527706,70.092821 3.632867,17.512512 -15.700968,-8.565361 -15.532771,8.866725 3.294277,-17.57935 -13.232647,-12.032574 17.736942,-2.299275 7.354546,-16.303265 7.667756,16.15832 17.778007,1.956602 z"
         inkscape:transform-center-x="0.0083063963"
         inkscape:transform-center-y="0.0085950323"
         transform="matrix(0.37905285,0,0,0.37905285,54.647223,58.988153)" />
      <path
         sodipodi:type="star"
         style="fill:#ffd700;stroke-width:0.527631;paint-order:stroke fill markers"
         id="path29"
         inkscape:flatsided="false"
         sodipodi:sides="5"
         sodipodi:cx="58.336308"
         sodipodi:cy="66.261238"
         sodipodi:r1="12.779328"
         sodipodi:r2="26.570242"
         sodipodi:arg1="0.30451088"
         sodipodi:arg2="0.93282941"
         inkscape:rounded="0"
         inkscape:randomized="0"
         d="m 70.527706,70.092821 3.632867,17.512512 -15.700968,-8.565361 -15.532771,8.866725 3.294277,-17.57935 -13.232647,-12.032574 17.736942,-2.299275 7.354546,-16.303265 7.667756,16.15832 17.778007,1.956602 z"
         inkscape:transform-center-x="0.0083063963"
         inkscape:transform-center-y="0.0085950323"
         transform="matrix(0.37905285,0,0,0.37905285,81.105559,58.988153)" />
      <path
         sodipodi:type="star"
         style="fill:#fffacd;stroke:#ffdead;stroke-width:2.63815;stroke-dasharray:none;paint-order:stroke fill markers"
         id="path15"
         inkscape:flatsided="false"
         sodipodi:sides="5"
         sodipodi:cx="58.336308"
         sodipodi:cy="66.261238"
         sodipodi:r1="12.779328"
         sodipodi:r2="26.570242"
         sodipodi:arg1="0.30451088"
         sodipodi:arg2="0.93282941"
         inkscape:rounded="0"
         inkscape:randomized="0"
         d="m 70.527706,70.092821 3.632867,17.512512 -15.700968,-8.565361 -15.532771,8.866725 3.294277,-17.57935 -13.232647,-12.032574 17.736942,-2.299275 7.354546,-16.303265 7.667756,16.15832 17.778007,1.956602 z"
         inkscape:transform-center-x="0.0083063963"
         inkscape:transform-center-y="0.0085950323"
         transform="matrix(0.37905285,0,0,0.37905285,134.02225,58.988153)" />
      <path
         sodipodi:type="star"
         style="fill:#fffacd;stroke:#ffdead;stroke-width:2.63815;stroke-dasharray:none;paint-order:stroke fill markers"
         id="path16"
         inkscape:flatsided="false"
         sodipodi:sides="5"
         sodipodi:cx="58.336308"
         sodipodi:cy="66.261238"
         sodipodi:r1="12.779328"
         sodipodi:r2="26.570242"
         sodipodi:arg1="0.30451088"
         sodipodi:arg2="0.93282941"
         inkscape:rounded="0"
         inkscape:randomized="0"
         d="m 70.527706,70.092821 3.632867,17.512512 -15.700968,-8.565361 -15.532771,8.866725 3.294277,-17.57935 -13.232647,-12.032574 17.736942,-2.299275 7.354546,-16.303265 7.667756,16.15832 17.778007,1.956602 z"
         inkscape:transform-center-x="0.0083063963"
         inkscape:transform-center-y="0.0085950323"
         transform="matrix(0.37905285,0,0,0.37905285,107.5639,58.988153)" />
    </g>
    <g
       id="g21"
       inkscape:label="bintang2"
       transform="translate(0,110.51887)"
       inkscape:export-filename="bintang-2.png"
       inkscape:export-xdpi="96"
       inkscape:export-ydpi="96">
      <rect
         style="fill:#ffffff;stroke:none;stroke-width:1;stroke-dasharray:none;paint-order:stroke fill markers;opacity:0"
         id="rect16"
         width="153.04111"
         height="29.416342"
         x="26.453632"
         y="68.810135"
         rx="6.3767118"
         ry="7.3540854" />
      <path
         sodipodi:type="star"
         style="fill:#ffd700;stroke-width:0.527631;paint-order:stroke fill markers"
         id="path17"
         inkscape:flatsided="false"
         sodipodi:sides="5"
         sodipodi:cx="58.336308"
         sodipodi:cy="66.261238"
         sodipodi:r1="12.779328"
         sodipodi:r2="26.570242"
         sodipodi:arg1="0.30451088"
         sodipodi:arg2="0.93282941"
         inkscape:rounded="0"
         inkscape:randomized="0"
         d="m 70.527706,70.092821 3.632867,17.512512 -15.700968,-8.565361 -15.532771,8.866725 3.294277,-17.57935 -13.232647,-12.032574 17.736942,-2.299275 7.354546,-16.303265 7.667756,16.15832 17.778007,1.956602 z"
         inkscape:transform-center-x="0.0083063963"
         inkscape:transform-center-y="0.0085950323"
         transform="matrix(0.37905285,0,0,0.37905285,28.188888,58.988153)" />
      <path
         sodipodi:type="star"
         style="fill:#ffd700;stroke-width:0.527631;paint-order:stroke fill markers"
         id="path18"
         inkscape:flatsided="false"
         sodipodi:sides="5"
         sodipodi:cx="58.336308"
         sodipodi:cy="66.261238"
         sodipodi:r1="12.779328"
         sodipodi:r2="26.570242"
         sodipodi:arg1="0.30451088"
         sodipodi:arg2="0.93282941"
         inkscape:rounded="0"
         inkscape:randomized="0"
         d="m 70.527706,70.092821 3.632867,17.512512 -15.700968,-8.565361 -15.532771,8.866725 3.294277,-17.57935 -13.232647,-12.032574 17.736942,-2.299275 7.354546,-16.303265 7.667756,16.15832 17.778007,1.956602 z"
         inkscape:transform-center-x="0.0083063963"
         inkscape:transform-center-y="0.0085950323"
         transform="matrix(0.37905285,0,0,0.37905285,54.647223,58.988153)" />
      <path
         sodipodi:type="star"
         style="fill:#fffacd;stroke:#ffdead;stroke-width:2.63815;stroke-dasharray:none;paint-order:stroke fill markers"
         id="path22"
         inkscape:flatsided="false"
         sodipodi:sides="5"
         sodipodi:cx="58.336308"
         sodipodi:cy="66.261238"
         sodipodi:r1="12.779328"
         sodipodi:r2="26.570242"
         sodipodi:arg1="0.30451088"
         sodipodi:arg2="0.93282941"
         inkscape:rounded="0"
         inkscape:randomized="0"
         d="m 70.527706,70.092821 3.632867,17.512512 -15.700968,-8.565361 -15.532771,8.866725 3.294277,-17.57935 -13.232647,-12.032574 17.736942,-2.299275 7.354546,-16.303265 7.667756,16.15832 17.778007,1.956602 z"
         inkscape:transform-center-x="0.0083063963"
         inkscape:transform-center-y="0.0085950323"
         transform="matrix(0.37905285,0,0,0.37905285,81.105562,58.988153)" />
      <path
         sodipodi:type="star"
         style="fill:#fffacd;stroke:#ffdead;stroke-width:2.63815;stroke-dasharray:none;paint-order:stroke fill markers"
         id="path21"
         inkscape:flatsided="false"
         sodipodi:sides="5"
         sodipodi:cx="58.336308"
         sodipodi:cy="66.261238"
         sodipodi:r1="12.779328"
         sodipodi:r2="26.570242"
         sodipodi:arg1="0.30451088"
         sodipodi:arg2="0.93282941"
         inkscape:rounded="0"
         inkscape:randomized="0"
         d="m 70.527706,70.092821 3.632867,17.512512 -15.700968,-8.565361 -15.532771,8.866725 3.294277,-17.57935 -13.232647,-12.032574 17.736942,-2.299275 7.354546,-16.303265 7.667756,16.15832 17.778007,1.956602 z"
         inkscape:transform-center-x="0.0083063963"
         inkscape:transform-center-y="0.0085950323"
         transform="matrix(0.37905285,0,0,0.37905285,107.5639,58.988153)" />
      <path
         sodipodi:type="star"
         style="fill:#fffacd;stroke:#ffdead;stroke-width:2.63815;stroke-dasharray:none;paint-order:stroke fill markers"
         id="path20"
         inkscape:flatsided="false"
         sodipodi:sides="5"
         sodipodi:cx="58.336308"
         sodipodi:cy="66.261238"
         sodipodi:r1="12.779328"
         sodipodi:r2="26.570242"
         sodipodi:arg1="0.30451088"
         sodipodi:arg2="0.93282941"
         inkscape:rounded="0"
         inkscape:randomized="0"
         d="m 70.527706,70.092821 3.632867,17.512512 -15.700968,-8.565361 -15.532771,8.866725 3.294277,-17.57935 -13.232647,-12.032574 17.736942,-2.299275 7.354546,-16.303265 7.667756,16.15832 17.778007,1.956602 z"
         inkscape:transform-center-x="0.0083063963"
         inkscape:transform-center-y="0.0085950323"
         transform="matrix(0.37905285,0,0,0.37905285,134.02225,58.988153)" />
    </g>
    <g
       id="g27"
       inkscape:label="bintang1"
       transform="translate(0,147.56604)"
       inkscape:export-filename="bintang-1.png"
       inkscape:export-xdpi="96"
       inkscape:export-ydpi="96">
      <rect
         style="display:inline;fill:#ffffff;stroke:none;stroke-width:1;stroke-dasharray:none;paint-order:stroke fill markers;opacity:0"
         id="rect22"
         width="153.04111"
         height="29.416342"
         x="26.453632"
         y="68.810135"
         rx="6.3767118"
         ry="7.3540854" />
      <path
         sodipodi:type="star"
         style="fill:#ffd700;stroke-width:0.527631;paint-order:stroke fill markers"
         id="path23"
         inkscape:flatsided="false"
         sodipodi:sides="5"
         sodipodi:cx="58.336308"
         sodipodi:cy="66.261238"
         sodipodi:r1="12.779328"
         sodipodi:r2="26.570242"
         sodipodi:arg1="0.30451088"
         sodipodi:arg2="0.93282941"
         inkscape:rounded="0"
         inkscape:randomized="0"
         d="m 70.527706,70.092821 3.632867,17.512512 -15.700968,-8.565361 -15.532771,8.866725 3.294277,-17.57935 -13.232647,-12.032574 17.736942,-2.299275 7.354546,-16.303265 7.667756,16.15832 17.778007,1.956602 z"
         inkscape:transform-center-x="0.0083063963"
         inkscape:transform-center-y="0.0085950323"
         transform="matrix(0.37905285,0,0,0.37905285,28.188888,58.988153)" />
      <path
         sodipodi:type="star"
         style="fill:#fffacd;stroke:#ffdead;stroke-width:2.63815;stroke-dasharray:none;paint-order:stroke fill markers"
         id="path28"
         inkscape:flatsided="false"
         sodipodi:sides="5"
         sodipodi:cx="58.336308"
         sodipodi:cy="66.261238"
         sodipodi:r1="12.779328"
         sodipodi:r2="26.570242"
         sodipodi:arg1="0.30451088"
         sodipodi:arg2="0.93282941"
         inkscape:rounded="0"
         inkscape:randomized="0"
         d="m 70.527706,70.092821 3.632867,17.512512 -15.700968,-8.565361 -15.532771,8.866725 3.294277,-17.57935 -13.232647,-12.032574 17.736942,-2.299275 7.354546,-16.303265 7.667756,16.15832 17.778007,1.956602 z"
         inkscape:transform-center-x="0.0083063963"
         inkscape:transform-center-y="0.0085950323"
         transform="matrix(0.37905285,0,0,0.37905285,54.647228,58.988153)" />
      <path
         sodipodi:type="star"
         style="fill:#fffacd;stroke:#ffdead;stroke-width:2.63815;stroke-dasharray:none;paint-order:stroke fill markers"
         id="path25"
         inkscape:flatsided="false"
         sodipodi:sides="5"
         sodipodi:cx="58.336308"
         sodipodi:cy="66.261238"
         sodipodi:r1="12.779328"
         sodipodi:r2="26.570242"
         sodipodi:arg1="0.30451088"
         sodipodi:arg2="0.93282941"
         inkscape:rounded="0"
         inkscape:randomized="0"
         d="m 70.527706,70.092821 3.632867,17.512512 -15.700968,-8.565361 -15.532771,8.866725 3.294277,-17.57935 -13.232647,-12.032574 17.736942,-2.299275 7.354546,-16.303265 7.667756,16.15832 17.778007,1.956602 z"
         inkscape:transform-center-x="0.0083063963"
         inkscape:transform-center-y="0.0085950323"
         transform="matrix(0.37905285,0,0,0.37905285,81.105562,58.988153)" />
      <path
         sodipodi:type="star"
         style="fill:#fffacd;stroke:#ffdead;stroke-width:2.63815;stroke-dasharray:none;paint-order:stroke fill markers"
         id="path26"
         inkscape:flatsided="false"
         sodipodi:sides="5"
         sodipodi:cx="58.336308"
         sodipodi:cy="66.261238"
         sodipodi:r1="12.779328"
         sodipodi:r2="26.570242"
         sodipodi:arg1="0.30451088"
         sodipodi:arg2="0.93282941"
         inkscape:rounded="0"
         inkscape:randomized="0"
         d="m 70.527706,70.092821 3.632867,17.512512 -15.700968,-8.565361 -15.532771,8.866725 3.294277,-17.57935 -13.232647,-12.032574 17.736942,-2.299275 7.354546,-16.303265 7.667756,16.15832 17.778007,1.956602 z"
         inkscape:transform-center-x="0.0083063963"
         inkscape:transform-center-y="0.0085950323"
         transform="matrix(0.37905285,0,0,0.37905285,107.5639,58.988153)" />
      <path
         sodipodi:type="star"
         style="fill:#fffacd;stroke:#ffdead;stroke-width:2.63815;stroke-dasharray:none;paint-order:stroke fill markers"
         id="path27"
         inkscape:flatsided="false"
         sodipodi:sides="5"
         sodipodi:cx="58.336308"
         sodipodi:cy="66.261238"
         sodipodi:r1="12.779328"
         sodipodi:r2="26.570242"
         sodipodi:arg1="0.30451088"
         sodipodi:arg2="0.93282941"
         inkscape:rounded="0"
         inkscape:randomized="0"
         d="m 70.527706,70.092821 3.632867,17.512512 -15.700968,-8.565361 -15.532771,8.866725 3.294277,-17.57935 -13.232647,-12.032574 17.736942,-2.299275 7.354546,-16.303265 7.667756,16.15832 17.778007,1.956602 z"
         inkscape:transform-center-x="0.0083063963"
         inkscape:transform-center-y="0.0085950323"
         transform="matrix(0.37905285,0,0,0.37905285,134.02225,58.988153)" />
    </g>
  </g>
</svg>
